# Blender 3.4.1
# www.blender.org
mtllib Desk1.mtl
o Cube
v 1.000000 5.266843 -5.332720
v 1.000000 -0.012258 -5.332720
v 1.000000 5.266843 -5.042200
v 1.000000 -0.012258 -5.042200
v -4.006907 5.266843 -5.332720
v -4.006907 -0.012258 -5.332720
v -4.006907 5.266843 -5.042200
v -4.006907 -0.012258 -5.042200
v -4.006907 5.469774 -5.042200
v -4.006907 5.469774 -5.332720
v -4.006907 5.266843 -5.521797
v 1.000000 5.266843 -5.521797
v -4.006907 5.469774 -5.521797
v 1.000000 5.469774 -5.521797
v 1.000000 5.266843 6.021182
v -4.006907 5.266843 6.021182
v 1.000000 5.469774 6.021182
v -4.006907 5.469774 6.021182
v -4.006907 5.469774 5.821029
v 1.000000 5.469774 5.821029
v -4.006907 5.266843 5.821029
v 1.000000 5.266843 5.821029
v 1.000000 5.469774 5.507273
v -4.006907 5.469774 5.507273
v -4.006907 5.266843 5.507273
v 1.000000 5.266843 5.507273
v -4.006907 0.032921 5.507273
v -4.006907 0.032921 5.821029
v 1.000000 0.032921 5.507273
v 1.000000 0.032921 5.821029
v 1.098445 5.469774 -0.537461
v -4.006907 5.469774 -0.683832
v -4.006907 5.266843 -0.683832
v 1.098445 5.266843 -0.537461
v 4.379107 5.266843 -5.332720
v 4.379107 5.266843 -5.042200
v 4.379107 5.469774 -5.332720
v 4.379107 5.469774 -5.042200
v 4.379107 5.266843 -5.521797
v 4.379107 5.469774 -5.521797
v 4.379107 5.469774 -0.683832
v 4.379107 5.266843 -0.683832
v -4.006907 5.469774 -0.074242
v -4.006907 5.266843 -0.074242
v 1.000000 5.266843 -0.074242
v 1.000000 5.469774 -0.074243
v 1.600028 5.266843 -5.042200
v 1.600028 5.266843 -5.332720
v 1.600028 5.469774 -5.521797
v 1.600028 5.266843 -0.683832
v 1.600028 5.266843 -5.521797
v 1.600028 5.469774 -0.683832
v -3.871689 2.606936 5.565218
v -3.871689 5.309052 5.565218
v -3.871689 2.606936 -5.080476
v -3.871689 5.309052 -5.080476
v -3.744232 2.606936 5.565218
v -3.744232 5.309052 5.565218
v -3.744232 2.606936 -5.080476
v -3.744232 5.309052 -5.080476
vn -0.0000 -1.0000 -0.0000
vn -0.0000 -0.0000 1.0000
vn -1.0000 -0.0000 -0.0000
vn 1.0000 -0.0000 -0.0000
vn -0.0000 -0.0000 -1.0000
vn -0.0000 1.0000 -0.0000
vn 0.9782 -0.0000 0.2079
vn 0.2801 -0.0000 0.9600
vt 0.625000 0.500000
vt 0.375000 0.500000
vt 0.625000 0.750000
vt 0.375000 0.750000
vt 0.625000 0.250000
vt 0.125000 0.500000
vt 0.375000 0.250000
vt 0.625000 1.000000
vt 0.625000 0.000000
vt 0.375000 1.000000
vt 0.375000 0.000000
vt 0.125000 0.750000
vt 0.283802 0.342153
vt 0.625000 0.000000
vt 0.286169 0.437276
vt 0.625000 0.250000
vt 0.625000 0.250000
vt 0.625000 0.500000
vt 0.223759 0.442101
vt 0.625000 0.250000
vt -0.000915 0.442101
vt 0.625000 0.500000
vt 0.412971 0.002159
vt 0.625000 0.750000
vt 0.625000 0.000000
vt 0.625000 1.000000
vt 0.625000 0.704600
vt 0.625000 0.750000
vt 0.999915 0.710344
vt 0.625000 1.000000
vt 0.625000 0.000000
vt 0.999542 0.690895
vt 0.625000 0.000000
vt 0.999915 0.686813
vt 0.625000 0.688980
vt 0.625000 0.750000
vt 0.625000 0.682983
vt 0.625000 1.000000
vt 0.625000 0.000000
vt 0.625000 0.750000
vt 0.625000 0.648517
vt 0.625000 0.648858
vt 0.625000 0.750000
vt 0.999915 0.650432
vt 0.999915 0.648517
vt 0.625000 0.000000
vt 0.625000 1.000000
vt 0.007983 0.995425
vt 0.625000 0.000000
vt 0.625000 0.750000
vt 0.004883 0.021608
vt 0.625000 1.000000
vt 0.995939 0.997442
vt 0.625000 0.000000
vt 0.625000 1.000000
vt 0.625000 0.000000
vt 0.625000 0.750000
vt 0.999039 0.021608
vt 0.625000 0.750000
vt 0.000424 0.005153
vt 0.652135 0.634202
vt 0.625000 0.750000
vt 0.421212 0.684297
vt 0.264333 0.001324
vt 0.625000 0.000000
vt 0.874095 0.640233
vt 0.625000 1.000000
vt 0.625000 0.000000
vt 0.625000 0.750000
vt 0.625000 0.500000
vt 0.625000 0.750000
vt 0.625000 0.500000
vt 0.625000 0.750000
vt 0.625000 0.500000
vt 0.616385 0.130449
vt 0.625000 0.500000
vt 0.625000 0.750000
vt 0.625000 0.750000
vt 1.001351 0.004393
vt 0.625000 0.000000
vt 0.903040 0.725875
vt 0.625000 1.000000
vt 0.625000 0.000000
vt 0.625000 0.750000
vt 0.625000 -0.003480
vt 0.625000 0.750000
vt 0.650326 0.718638
vt 0.625000 0.750000
vt 0.625000 0.500000
vt 0.533794 0.124556
vt 0.625000 0.500000
vt 0.439031 0.002011
vt 0.625000 0.750000
vt 0.625000 0.500000
vt 0.531208 0.751648
vt 0.625000 0.750000
vt 0.453675 0.684631
vt 0.375000 0.000000
vt 0.375000 1.000000
vt 0.125000 0.750000
vt 0.625000 0.000000
vt 0.625000 1.000000
vt 0.875000 0.750000
vt 0.375000 0.250000
vt 0.125000 0.500000
vt 0.625000 0.250000
vt 0.875000 0.500000
vt 0.375000 0.750000
vt 0.625000 0.750000
vt 0.375000 0.500000
vt 0.625000 0.500000
s 0
g Cube_Material
usemtl Material
f 50/93/1 47/88/1 36/71/1 42/78/1
f 4/4/2 3/3/2 7/8/2 8/10/2
f 8/11/3 7/9/3 5/5/3 6/7/3
f 6/6/1 2/2/1 4/4/1 8/12/1
f 2/2/4 1/1/4 3/3/4 4/4/4
f 6/7/5 5/5/5 1/1/5 2/2/5
f 9/13/6 32/64/6 31/60/6 14/21/6 13/19/6 10/15/6
f 5/5/3 10/16/3 13/20/3 11/17/3
f 20/35/6 19/32/6 18/29/6 17/27/6
f 5/5/3 7/9/3 9/14/3 10/16/3
f 12/18/5 11/17/5 13/20/5 14/22/5
f 52/95/6 41/77/6 40/75/6 49/90/6
f 1/1/1 5/5/1 11/17/1 12/18/1
f 16/26/2 15/24/2 17/28/2 18/30/2
f 19/33/3 21/39/3 16/25/3 18/31/3
f 21/38/1 22/40/1 15/24/1 16/26/1
f 22/40/4 20/36/4 17/28/4 15/24/4
f 26/50/4 23/43/4 20/36/4 22/40/4
f 22/40/2 21/38/2 28/55/2 30/59/2
f 24/46/3 25/49/3 21/39/3 19/33/3
f 23/41/6 24/44/6 19/34/6 20/37/6
f 46/85/6 43/79/6 24/45/6 23/42/6
f 43/80/3 44/83/3 25/49/3 24/46/3
f 44/82/1 45/84/1 26/50/1 25/47/1
f 45/84/4 46/86/4 23/43/4 26/50/4
f 27/52/1 29/57/1 30/59/1 28/55/1
f 26/50/4 22/40/4 30/59/4 29/57/4
f 25/48/5 26/51/5 29/58/5 27/53/5
f 21/39/3 25/49/3 27/54/3 28/56/3
f 47/88/1 48/89/1 35/70/1 36/71/1
f 7/8/1 3/3/1 34/69/1 33/67/1
f 9/14/3 7/9/3 33/68/3 32/65/3
f 36/71/4 35/70/4 37/72/4 38/73/4
f 37/72/4 35/70/4 39/74/4 40/76/4
f 36/71/4 38/73/4 41/77/4 42/78/4
f 48/89/1 51/94/1 39/74/1 35/70/1
f 51/94/5 49/91/5 40/76/5 39/74/5
f 52/96/2 50/93/2 42/78/2 41/77/2
f 34/69/7 31/62/7 46/86/7 45/84/7
f 33/67/1 34/69/1 45/84/1 44/82/1
f 32/65/3 33/68/3 44/83/3 43/80/3
f 31/61/6 32/66/6 43/81/6 46/87/6
f 31/62/8 34/69/8 50/93/8 52/96/8
f 12/18/5 14/22/5 49/91/5 51/94/5
f 14/23/6 31/63/6 52/97/6 49/92/6
f 1/1/1 12/18/1 51/94/1 48/89/1
f 3/3/1 1/1/1 48/89/1 47/88/1
f 34/69/1 3/3/1 47/88/1 50/93/1
f 53/98/3 54/101/3 56/106/3 55/104/3
f 55/104/5 56/106/5 60/111/5 59/110/5
f 59/110/4 60/111/4 58/109/4 57/108/4
f 57/108/2 58/109/2 54/102/2 53/99/2
f 55/105/1 59/110/1 57/108/1 53/100/1
f 60/111/6 56/107/6 54/103/6 58/109/6
