# Blender 3.4.1
# www.blender.org
mtllib inside window.mtl
o inside_window
v -6.867260 3.952631 -2.717070
v -6.867260 6.796685 -2.717070
v -6.867260 3.952631 -8.406785
v -6.867260 6.796685 -8.406785
v -6.370430 3.952631 -2.717070
v -6.370430 6.796685 -2.717070
v -6.370430 3.952631 -8.406785
v -6.370430 6.796685 -8.406785
v -6.867260 3.952631 -8.159406
v -6.867260 3.952631 -7.912027
v -6.867260 3.952631 -7.664648
v -6.867260 3.952631 -7.417269
v -6.867260 3.952631 -7.169890
v -6.867260 3.952631 -6.922512
v -6.867260 3.952631 -6.675133
v -6.867260 3.952631 -6.427754
v -6.867260 3.952631 -6.180375
v -6.867260 3.952631 -5.932996
v -6.867260 3.952631 -5.685617
v -6.867260 3.952631 -5.438238
v -6.867260 3.952631 -5.190859
v -6.867260 3.952631 -4.943480
v -6.867260 3.952631 -4.696101
v -6.867260 3.952631 -4.448722
v -6.867260 3.952631 -4.201344
v -6.867260 3.952631 -3.953964
v -6.867260 3.952631 -3.706586
v -6.867260 3.952631 -3.459207
v -6.867260 3.952631 -3.211828
v -6.867260 3.952631 -2.964449
v -6.867260 6.796685 -2.964449
v -6.867260 6.796685 -3.211828
v -6.867260 6.796685 -3.459206
v -6.867260 6.796685 -3.706585
v -6.867260 6.796685 -3.953964
v -6.867260 6.796685 -4.201343
v -6.867260 6.796685 -4.448722
v -6.867260 6.796685 -4.696101
v -6.867260 6.796685 -4.943480
v -6.867260 6.796685 -5.190859
v -6.867260 6.796685 -5.438238
v -6.867260 6.796685 -5.685616
v -6.867260 6.796685 -5.932996
v -6.867260 6.796685 -6.180375
v -6.867260 6.796685 -6.427753
v -6.867260 6.796685 -6.675132
v -6.867260 6.796685 -6.922511
v -6.867260 6.796685 -7.169890
v -6.867260 6.796685 -7.417269
v -6.867260 6.796685 -7.664648
v -6.867260 6.796685 -7.912027
v -6.867260 6.796685 -8.159406
v -6.370430 3.952631 -2.964449
v -6.370430 3.952631 -3.211828
v -6.370430 3.952631 -3.459206
v -6.370430 3.952631 -3.706585
v -6.370430 3.952631 -3.953964
v -6.370430 3.952631 -4.201343
v -6.370430 3.952631 -4.448722
v -6.370430 3.952631 -4.696101
v -6.370430 3.952631 -4.943480
v -6.370430 3.952631 -5.190859
v -6.370430 3.952631 -5.438238
v -6.370430 3.952631 -5.685616
v -6.370430 3.952631 -5.932996
v -6.370430 3.952631 -6.180375
v -6.370430 3.952631 -6.427753
v -6.370430 3.952631 -6.675132
v -6.370430 3.952631 -6.922511
v -6.370430 3.952631 -7.169890
v -6.370430 3.952631 -7.417269
v -6.370430 3.952631 -7.664648
v -6.370430 3.952631 -7.912027
v -6.370430 3.952631 -8.159406
v -6.370430 6.796685 -8.159406
v -6.370430 6.796685 -7.912027
v -6.370430 6.796685 -7.664648
v -6.370430 6.796685 -7.417269
v -6.370430 6.796685 -7.169890
v -6.370430 6.796685 -6.922512
v -6.370430 6.796685 -6.675133
v -6.370430 6.796685 -6.427754
v -6.370430 6.796685 -6.180375
v -6.370430 6.796685 -5.932996
v -6.370430 6.796685 -5.685617
v -6.370430 6.796685 -5.438238
v -6.370430 6.796685 -5.190859
v -6.370430 6.796685 -4.943480
v -6.370430 6.796685 -4.696101
v -6.370430 6.796685 -4.448722
v -6.370430 6.796685 -4.201344
v -6.370430 6.796685 -3.953964
v -6.370430 6.796685 -3.706586
v -6.370430 6.796685 -3.459207
v -6.370430 6.796685 -3.211828
v -6.370430 6.796685 -2.964449
v -6.867260 4.268637 -2.717070
v -6.867260 4.584643 -2.717070
v -6.867260 4.900649 -2.717070
v -6.867260 5.216655 -2.717070
v -6.867260 5.532661 -2.717070
v -6.867260 5.848667 -2.717070
v -6.867260 6.164673 -2.717070
v -6.867260 6.480679 -2.717070
v -6.867260 6.480679 -8.406785
v -6.867260 6.164673 -8.406785
v -6.867260 5.848667 -8.406785
v -6.867260 5.532661 -8.406785
v -6.867260 5.216655 -8.406785
v -6.867260 4.900649 -8.406785
v -6.867260 4.584643 -8.406785
v -6.867260 4.268637 -8.406785
v -6.370430 6.480679 -8.406785
v -6.370430 6.164673 -8.406785
v -6.370430 5.848667 -8.406785
v -6.370430 5.532661 -8.406785
v -6.370430 5.216655 -8.406785
v -6.370430 4.900649 -8.406785
v -6.370430 4.584643 -8.406785
v -6.370430 4.268637 -8.406785
v -6.370430 6.480679 -2.717070
v -6.370430 6.164673 -2.717070
v -6.370430 5.848667 -2.717070
v -6.370430 5.532661 -2.717070
v -6.370430 5.216655 -2.717070
v -6.370430 4.900649 -2.717070
v -6.370430 4.584643 -2.717070
v -6.370430 4.268637 -2.717070
v -6.370430 6.480679 -8.159406
v -6.370430 6.164673 -8.159406
v -6.370430 5.848667 -8.159406
v -6.370430 5.532661 -8.159406
v -6.370430 5.216655 -8.159406
v -6.370430 4.900649 -8.159406
v -6.370430 4.584643 -8.159406
v -6.370430 4.268637 -8.159406
v -6.370430 6.480679 -7.912027
v -6.370430 4.268637 -7.912027
v -6.370430 6.480679 -7.664648
v -6.370430 4.268637 -7.664648
v -6.370430 6.480679 -7.417269
v -6.370430 4.268637 -7.417269
v -6.370430 6.480679 -7.169890
v -6.370430 4.268637 -7.169890
v -6.370430 6.480679 -6.922512
v -6.370430 4.268637 -6.922511
v -6.370430 6.480679 -6.675133
v -6.370430 4.268637 -6.675133
v -6.370430 6.480679 -6.427754
v -6.370430 4.268637 -6.427753
v -6.370430 6.480679 -6.180375
v -6.370430 4.268637 -6.180375
v -6.370430 6.480679 -5.932996
v -6.370430 4.268637 -5.932996
v -6.370430 6.480679 -5.685617
v -6.370430 4.268637 -5.685616
v -6.370430 6.480679 -5.438238
v -6.370430 4.268637 -5.438238
v -6.370430 6.480679 -5.190859
v -6.370430 4.268637 -5.190859
v -6.370430 6.480679 -4.943480
v -6.370430 4.268637 -4.943480
v -6.370430 6.480679 -4.696101
v -6.370430 4.268637 -4.696101
v -6.370430 6.480679 -4.448722
v -6.370430 4.268637 -4.448722
v -6.370430 6.480679 -4.201344
v -6.370430 4.268637 -4.201343
v -6.370430 6.480679 -3.953964
v -6.370430 4.268637 -3.953964
v -6.370430 6.480679 -3.706586
v -6.370430 4.268637 -3.706585
v -6.370430 6.480679 -3.459207
v -6.370430 4.268637 -3.459206
v -6.370430 6.480679 -3.211828
v -6.370430 4.268637 -3.211828
v -6.370430 6.480679 -2.964449
v -6.370430 6.164673 -2.964449
v -6.370430 5.848667 -2.964449
v -6.370430 5.532661 -2.964449
v -6.370430 5.216655 -2.964449
v -6.370430 4.900649 -2.964449
v -6.370430 4.584643 -2.964449
v -6.370430 4.268637 -2.964449
v -6.867260 6.480679 -2.964449
v -6.867260 6.164673 -2.964449
v -6.867260 5.848667 -2.964449
v -6.867260 5.532661 -2.964449
v -6.867260 5.216655 -2.964449
v -6.867260 4.900649 -2.964449
v -6.867260 4.584643 -2.964449
v -6.867260 4.268637 -2.964449
v -6.867260 6.480679 -3.211828
v -6.867260 4.268637 -3.211828
v -6.867260 6.480679 -3.459206
v -6.867260 4.268637 -3.459207
v -6.867260 6.480679 -3.706585
v -6.867260 4.268637 -3.706586
v -6.867260 6.480679 -3.953964
v -6.867260 4.268637 -3.953964
v -6.867260 6.480679 -4.201343
v -6.867260 4.268637 -4.201344
v -6.867260 6.480679 -4.448722
v -6.867260 4.268637 -4.448722
v -6.867260 6.480679 -4.696101
v -6.867260 4.268637 -4.696101
v -6.867260 6.480679 -4.943480
v -6.867260 4.268637 -4.943480
v -6.867260 6.480679 -5.190859
v -6.867260 4.268637 -5.190859
v -6.867260 6.480679 -5.438238
v -6.867260 4.268637 -5.438238
v -6.867260 6.480679 -5.685616
v -6.867260 4.268637 -5.685617
v -6.867260 6.480679 -5.932996
v -6.867260 4.268637 -5.932996
v -6.867260 6.480679 -6.180375
v -6.867260 4.268637 -6.180375
v -6.867260 6.480679 -6.427753
v -6.867260 4.268637 -6.427753
v -6.867260 6.480679 -6.675132
v -6.867260 4.268637 -6.675133
v -6.867260 6.480679 -6.922511
v -6.867260 4.268637 -6.922512
v -6.867260 6.480679 -7.169890
v -6.867260 4.268637 -7.169890
v -6.867260 6.480679 -7.417269
v -6.867260 4.268637 -7.417269
v -6.867260 6.480679 -7.664648
v -6.867260 4.268637 -7.664648
v -6.867260 6.480679 -7.912027
v -6.867260 4.268637 -7.912027
v -6.867260 6.480679 -8.159406
v -6.867260 6.164673 -8.159406
v -6.867260 5.848667 -8.159406
v -6.867260 5.532661 -8.159406
v -6.867260 5.216655 -8.159406
v -6.867260 4.900649 -8.159406
v -6.867260 4.584643 -8.159406
v -6.867260 4.268637 -8.159406
v -6.536040 4.268637 -8.159406
v -6.701651 4.268637 -8.159406
v -6.536040 4.268637 -2.964449
v -6.701651 4.268637 -2.964449
v -6.536040 6.480679 -2.964449
v -6.701651 6.480679 -2.964449
v -6.536040 6.480679 -8.159406
v -6.701651 6.480679 -8.159406
vn -1.0000 -0.0000 -0.0000
vn -0.0000 -0.0000 -1.0000
vn 1.0000 -0.0000 -0.0000
vn -0.0000 -0.0000 1.0000
vn -0.0000 -1.0000 -0.0000
vn -0.0000 1.0000 -0.0000
vt 0.125000 0.750000
vt 0.375000 0.000000
vt 0.375000 1.000000
vt 0.625000 1.000000
vt 0.875000 0.750000
vt 0.625000 0.000000
vt 0.125000 0.500000
vt 0.375000 0.250000
vt 0.625000 0.250000
vt 0.875000 0.500000
vt 0.375000 0.750000
vt 0.625000 0.750000
vt 0.375000 0.500000
vt 0.625000 0.500000
vt 0.125000 0.510870
vt 0.375000 0.239130
vt 0.125000 0.521739
vt 0.375000 0.228261
vt 0.125000 0.532609
vt 0.375000 0.217391
vt 0.125000 0.543478
vt 0.375000 0.206522
vt 0.125000 0.554348
vt 0.375000 0.195652
vt 0.125000 0.565217
vt 0.375000 0.184783
vt 0.125000 0.576087
vt 0.375000 0.173913
vt 0.125000 0.586957
vt 0.375000 0.163043
vt 0.125000 0.597826
vt 0.375000 0.152174
vt 0.125000 0.608696
vt 0.375000 0.141304
vt 0.125000 0.619565
vt 0.375000 0.130435
vt 0.125000 0.630435
vt 0.375000 0.119565
vt 0.125000 0.641304
vt 0.375000 0.108696
vt 0.125000 0.652174
vt 0.375000 0.097826
vt 0.125000 0.663043
vt 0.375000 0.086957
vt 0.125000 0.673913
vt 0.375000 0.076087
vt 0.125000 0.684783
vt 0.375000 0.065217
vt 0.125000 0.695652
vt 0.375000 0.054348
vt 0.125000 0.706522
vt 0.375000 0.043478
vt 0.125000 0.717391
vt 0.375000 0.032609
vt 0.125000 0.728261
vt 0.375000 0.021739
vt 0.125000 0.739130
vt 0.375000 0.010870
vt 0.875000 0.739130
vt 0.625000 0.010870
vt 0.875000 0.728261
vt 0.625000 0.021739
vt 0.875000 0.717391
vt 0.625000 0.032609
vt 0.875000 0.706522
vt 0.625000 0.043478
vt 0.875000 0.695652
vt 0.625000 0.054348
vt 0.875000 0.684783
vt 0.625000 0.065217
vt 0.875000 0.673913
vt 0.625000 0.076087
vt 0.875000 0.663043
vt 0.625000 0.086957
vt 0.875000 0.652174
vt 0.625000 0.097826
vt 0.875000 0.641304
vt 0.625000 0.108696
vt 0.875000 0.630435
vt 0.625000 0.119565
vt 0.875000 0.619565
vt 0.625000 0.130435
vt 0.875000 0.608696
vt 0.625000 0.141304
vt 0.875000 0.597826
vt 0.625000 0.152174
vt 0.875000 0.586957
vt 0.625000 0.163043
vt 0.875000 0.576087
vt 0.625000 0.173913
vt 0.875000 0.565217
vt 0.625000 0.184783
vt 0.875000 0.554348
vt 0.625000 0.195652
vt 0.875000 0.543478
vt 0.625000 0.206522
vt 0.875000 0.532609
vt 0.625000 0.217391
vt 0.875000 0.521739
vt 0.625000 0.228261
vt 0.875000 0.510870
vt 0.625000 0.239130
vt 0.375000 0.739130
vt 0.375000 0.728261
vt 0.375000 0.717391
vt 0.375000 0.706522
vt 0.375000 0.695652
vt 0.375000 0.684783
vt 0.375000 0.673913
vt 0.375000 0.663043
vt 0.375000 0.652174
vt 0.375000 0.641304
vt 0.375000 0.630435
vt 0.375000 0.619565
vt 0.375000 0.608696
vt 0.375000 0.597826
vt 0.375000 0.586957
vt 0.375000 0.576087
vt 0.375000 0.565217
vt 0.375000 0.554348
vt 0.375000 0.543478
vt 0.375000 0.532609
vt 0.375000 0.521739
vt 0.375000 0.510870
vt 0.625000 0.510870
vt 0.625000 0.521739
vt 0.625000 0.532609
vt 0.625000 0.543478
vt 0.625000 0.554348
vt 0.625000 0.565217
vt 0.625000 0.576087
vt 0.625000 0.586957
vt 0.625000 0.597826
vt 0.625000 0.608696
vt 0.625000 0.619565
vt 0.625000 0.630435
vt 0.625000 0.641304
vt 0.625000 0.652174
vt 0.625000 0.663043
vt 0.625000 0.673913
vt 0.625000 0.684783
vt 0.625000 0.695652
vt 0.625000 0.706522
vt 0.625000 0.717391
vt 0.625000 0.728261
vt 0.625000 0.739130
vt 0.402778 0.000000
vt 0.402778 1.000000
vt 0.430556 0.000000
vt 0.430556 1.000000
vt 0.458333 0.000000
vt 0.458333 1.000000
vt 0.486111 0.000000
vt 0.486111 1.000000
vt 0.513889 0.000000
vt 0.513889 1.000000
vt 0.541667 0.000000
vt 0.541667 1.000000
vt 0.569444 0.000000
vt 0.569444 1.000000
vt 0.597222 0.000000
vt 0.597222 1.000000
vt 0.597222 0.250000
vt 0.569444 0.250000
vt 0.541667 0.250000
vt 0.513889 0.250000
vt 0.486111 0.250000
vt 0.458333 0.250000
vt 0.430556 0.250000
vt 0.402778 0.250000
vt 0.597222 0.500000
vt 0.569444 0.500000
vt 0.541667 0.500000
vt 0.513889 0.500000
vt 0.486111 0.500000
vt 0.458333 0.500000
vt 0.430556 0.500000
vt 0.402778 0.500000
vt 0.597222 0.750000
vt 0.569444 0.750000
vt 0.541667 0.750000
vt 0.513889 0.750000
vt 0.486111 0.750000
vt 0.458333 0.750000
vt 0.430556 0.750000
vt 0.402778 0.750000
vt 0.597222 0.510870
vt 0.000000 0.000000
vt 0.569445 0.510870
vt 0.541667 0.510870
vt 0.513889 0.510870
vt 0.486111 0.510870
vt 0.458333 0.510870
vt 0.430556 0.510870
vt 0.402778 0.510870
vt 0.000000 0.000000
vt 0.597222 0.521739
vt 0.402778 0.521739
vt 0.597222 0.532609
vt 0.402778 0.532609
vt 0.597222 0.543478
vt 0.402778 0.543478
vt 0.597222 0.554348
vt 0.402778 0.554348
vt 0.597222 0.565217
vt 0.402778 0.565217
vt 0.597222 0.576087
vt 0.402778 0.576087
vt 0.597222 0.586957
vt 0.402778 0.586957
vt 0.597222 0.597826
vt 0.402778 0.597826
vt 0.597222 0.608696
vt 0.402778 0.608696
vt 0.597222 0.619565
vt 0.402778 0.619565
vt 0.597222 0.630435
vt 0.402778 0.630435
vt 0.597222 0.641304
vt 0.402778 0.641304
vt 0.597222 0.652174
vt 0.402778 0.652174
vt 0.597222 0.663043
vt 0.402778 0.663043
vt 0.597222 0.673913
vt 0.402778 0.673913
vt 0.597222 0.684783
vt 0.402778 0.684783
vt 0.597222 0.695652
vt 0.402778 0.695652
vt 0.597222 0.706522
vt 0.402778 0.706522
vt 0.597222 0.717391
vt 0.402778 0.717391
vt 0.597222 0.728261
vt 0.402778 0.728261
vt 0.597222 0.739130
vt 0.000000 0.000000
vt 0.569444 0.739130
vt 0.541667 0.739130
vt 0.513889 0.739130
vt 0.486111 0.739130
vt 0.458333 0.739130
vt 0.430556 0.739130
vt 0.402778 0.739130
vt 0.000000 0.000000
vt 0.597222 0.010870
vt 0.000000 0.000000
vt 0.569445 0.010870
vt 0.541667 0.010870
vt 0.513889 0.010870
vt 0.486111 0.010870
vt 0.458333 0.010870
vt 0.430556 0.010870
vt 0.402778 0.010870
vt 0.000000 0.000000
vt 0.597222 0.021739
vt 0.402778 0.021739
vt 0.597222 0.032609
vt 0.402778 0.032609
vt 0.597222 0.043478
vt 0.402778 0.043478
vt 0.597222 0.054348
vt 0.402778 0.054348
vt 0.597222 0.065217
vt 0.402778 0.065217
vt 0.597222 0.076087
vt 0.402778 0.076087
vt 0.597222 0.086957
vt 0.402778 0.086957
vt 0.597222 0.097826
vt 0.402778 0.097826
vt 0.597222 0.108696
vt 0.402778 0.108696
vt 0.597222 0.119565
vt 0.402778 0.119565
vt 0.597222 0.130435
vt 0.402778 0.130435
vt 0.597222 0.141304
vt 0.402778 0.141304
vt 0.597222 0.152174
vt 0.402778 0.152174
vt 0.597222 0.163043
vt 0.402778 0.163043
vt 0.597222 0.173913
vt 0.402778 0.173913
vt 0.597222 0.184783
vt 0.402778 0.184783
vt 0.597222 0.195652
vt 0.402778 0.195652
vt 0.597222 0.206522
vt 0.402778 0.206522
vt 0.597222 0.217391
vt 0.402778 0.217391
vt 0.597222 0.228261
vt 0.402778 0.228261
vt 0.597222 0.239130
vt 0.000000 0.000000
vt 0.569444 0.239130
vt 0.541667 0.239130
vt 0.513889 0.239130
vt 0.486111 0.239130
vt 0.458333 0.239130
vt 0.430556 0.239130
vt 0.402778 0.239130
vt 0.000000 0.000000
vt 0.000000 0.000000
vt 0.004000 1.000000
vt 0.000000 0.000000
vt 0.000000 0.998224
vt 0.000000 0.000000
vt 0.004000 0.001776
vt 0.000000 0.000000
vt 0.000000 0.000000
vt 1.000000 -0.000000
vt 0.000000 0.000000
vt 1.001217 0.000000
vt 0.000000 0.000000
vt 1.001333 1.001776
vt 0.000000 0.000000
vt 0.998680 0.997308
s 0
g inside_window_White
usemtl White
f 233/297/1 52/102/1 4/9/1 105/163/1
f 105/163/2 4/9/2 8/14/2 113/171/2
f 177/237/3 96/146/3 6/12/3 121/179/3
f 121/179/4 6/12/4 2/4/4 104/162/4
f 30/57/5 53/103/5 5/11/5 1/1/5
f 96/146/6 31/59/6 2/5/6 6/12/6
f 8/14/6 4/10/6 52/101/6 75/125/6
f 75/125/6 52/101/6 51/99/6 76/126/6
f 76/126/6 51/99/6 50/97/6 77/127/6
f 77/127/6 50/97/6 49/95/6 78/128/6
f 78/128/6 49/95/6 48/93/6 79/129/6
f 79/129/6 48/93/6 47/91/6 80/130/6
f 80/130/6 47/91/6 46/89/6 81/131/6
f 81/131/6 46/89/6 45/87/6 82/132/6
f 82/132/6 45/87/6 44/85/6 83/133/6
f 83/133/6 44/85/6 43/83/6 84/134/6
f 84/134/6 43/83/6 42/81/6 85/135/6
f 85/135/6 42/81/6 41/79/6 86/136/6
f 86/136/6 41/79/6 40/77/6 87/137/6
f 87/137/6 40/77/6 39/75/6 88/138/6
f 88/138/6 39/75/6 38/73/6 89/139/6
f 89/139/6 38/73/6 37/71/6 90/140/6
f 90/140/6 37/71/6 36/69/6 91/141/6
f 91/141/6 36/69/6 35/67/6 92/142/6
f 92/142/6 35/67/6 34/65/6 93/143/6
f 93/143/6 34/65/6 33/63/6 94/144/6
f 94/144/6 33/63/6 32/61/6 95/145/6
f 95/145/6 32/61/6 31/59/6 96/146/6
f 3/7/5 7/13/5 74/124/5 9/15/5
f 9/15/5 74/124/5 73/123/5 10/17/5
f 10/17/5 73/123/5 72/122/5 11/19/5
f 11/19/5 72/122/5 71/121/5 12/21/5
f 12/21/5 71/121/5 70/120/5 13/23/5
f 13/23/5 70/120/5 69/119/5 14/25/5
f 14/25/5 69/119/5 68/118/5 15/27/5
f 15/27/5 68/118/5 67/117/5 16/29/5
f 16/29/5 67/117/5 66/116/5 17/31/5
f 17/31/5 66/116/5 65/115/5 18/33/5
f 18/33/5 65/115/5 64/114/5 19/35/5
f 19/35/5 64/114/5 63/113/5 20/37/5
f 20/37/5 63/113/5 62/112/5 21/39/5
f 21/39/5 62/112/5 61/111/5 22/41/5
f 22/41/5 61/111/5 60/110/5 23/43/5
f 23/43/5 60/110/5 59/109/5 24/45/5
f 24/45/5 59/109/5 58/108/5 25/47/5
f 25/47/5 58/108/5 57/107/5 26/49/5
f 26/49/5 57/107/5 56/106/5 27/51/5
f 27/51/5 56/106/5 55/105/5 28/53/5
f 28/53/5 55/105/5 54/104/5 29/55/5
f 29/55/5 54/104/5 53/103/5 30/57/5
f 113/171/3 8/14/3 75/125/3 129/187/3
f 129/187/3 75/125/3 76/126/3 137/197/3
f 137/197/3 76/126/3 77/127/3 139/199/3
f 139/199/3 77/127/3 78/128/3 141/201/3
f 141/201/3 78/128/3 79/129/3 143/203/3
f 143/203/3 79/129/3 80/130/3 145/205/3
f 145/205/3 80/130/3 81/131/3 147/207/3
f 147/207/3 81/131/3 82/132/3 149/209/3
f 149/209/3 82/132/3 83/133/3 151/211/3
f 151/211/3 83/133/3 84/134/3 153/213/3
f 153/213/3 84/134/3 85/135/3 155/215/3
f 155/215/3 85/135/3 86/136/3 157/217/3
f 157/217/3 86/136/3 87/137/3 159/219/3
f 159/219/3 87/137/3 88/138/3 161/221/3
f 161/221/3 88/138/3 89/139/3 163/223/3
f 163/223/3 89/139/3 90/140/3 165/225/3
f 165/225/3 90/140/3 91/141/3 167/227/3
f 167/227/3 91/141/3 92/142/3 169/229/3
f 169/229/3 92/142/3 93/143/3 171/231/3
f 171/231/3 93/143/3 94/144/3 173/233/3
f 173/233/3 94/144/3 95/145/3 175/235/3
f 175/235/3 95/145/3 96/146/3 177/237/3
f 104/161/1 2/6/1 31/60/1 185/247/1
f 185/247/1 31/60/1 32/62/1 193/257/1
f 193/257/1 32/62/1 33/64/1 195/259/1
f 195/259/1 33/64/1 34/66/1 197/261/1
f 197/261/1 34/66/1 35/68/1 199/263/1
f 199/263/1 35/68/1 36/70/1 201/265/1
f 201/265/1 36/70/1 37/72/1 203/267/1
f 203/267/1 37/72/1 38/74/1 205/269/1
f 205/269/1 38/74/1 39/76/1 207/271/1
f 207/271/1 39/76/1 40/78/1 209/273/1
f 209/273/1 40/78/1 41/80/1 211/275/1
f 211/275/1 41/80/1 42/82/1 213/277/1
f 213/277/1 42/82/1 43/84/1 215/279/1
f 215/279/1 43/84/1 44/86/1 217/281/1
f 217/281/1 44/86/1 45/88/1 219/283/1
f 219/283/1 45/88/1 46/90/1 221/285/1
f 221/285/1 46/90/1 47/92/1 223/287/1
f 223/287/1 47/92/1 48/94/1 225/289/1
f 225/289/1 48/94/1 49/96/1 227/291/1
f 227/291/1 49/96/1 50/98/1 229/293/1
f 229/293/1 50/98/1 51/100/1 231/295/1
f 231/295/1 51/100/1 52/102/1 233/297/1
f 10/18/1 232/296/1 240/305/1 9/16/1
f 11/20/1 230/294/1 232/296/1 10/18/1
f 12/22/1 228/292/1 230/294/1 11/20/1
f 13/24/1 226/290/1 228/292/1 12/22/1
f 14/26/1 224/288/1 226/290/1 13/24/1
f 15/28/1 222/286/1 224/288/1 14/26/1
f 16/30/1 220/284/1 222/286/1 15/28/1
f 17/32/1 218/282/1 220/284/1 16/30/1
f 18/34/1 216/280/1 218/282/1 17/32/1
f 19/36/1 214/278/1 216/280/1 18/34/1
f 20/38/1 212/276/1 214/278/1 19/36/1
f 21/40/1 210/274/1 212/276/1 20/38/1
f 22/42/1 208/272/1 210/274/1 21/40/1
f 23/44/1 206/270/1 208/272/1 22/42/1
f 24/46/1 204/268/1 206/270/1 23/44/1
f 25/48/1 202/266/1 204/268/1 24/46/1
f 26/50/1 200/264/1 202/266/1 25/48/1
f 27/52/1 198/262/1 200/264/1 26/50/1
f 28/54/1 196/260/1 198/262/1 27/52/1
f 29/56/1 194/258/1 196/260/1 28/54/1
f 30/58/1 192/255/1 194/258/1 29/56/1
f 1/2/1 97/147/1 192/255/1 30/58/1
f 97/147/1 98/149/1 191/254/1 192/255/1
f 98/149/1 99/151/1 190/253/1 191/254/1
f 99/151/1 100/153/1 189/252/1 190/253/1
f 100/153/1 101/155/1 188/251/1 189/252/1
f 101/155/1 102/157/1 187/250/1 188/251/1
f 102/157/1 103/159/1 186/249/1 187/250/1
f 103/159/1 104/161/1 185/247/1 186/249/1
f 54/104/3 176/236/3 184/245/3 53/103/3
f 55/105/3 174/234/3 176/236/3 54/104/3
f 56/106/3 172/232/3 174/234/3 55/105/3
f 57/107/3 170/230/3 172/232/3 56/106/3
f 58/108/3 168/228/3 170/230/3 57/107/3
f 59/109/3 166/226/3 168/228/3 58/108/3
f 60/110/3 164/224/3 166/226/3 59/109/3
f 61/111/3 162/222/3 164/224/3 60/110/3
f 62/112/3 160/220/3 162/222/3 61/111/3
f 63/113/3 158/218/3 160/220/3 62/112/3
f 64/114/3 156/216/3 158/218/3 63/113/3
f 65/115/3 154/214/3 156/216/3 64/114/3
f 66/116/3 152/212/3 154/214/3 65/115/3
f 67/117/3 150/210/3 152/212/3 66/116/3
f 68/118/3 148/208/3 150/210/3 67/117/3
f 69/119/3 146/206/3 148/208/3 68/118/3
f 70/120/3 144/204/3 146/206/3 69/119/3
f 71/121/3 142/202/3 144/204/3 70/120/3
f 72/122/3 140/200/3 142/202/3 71/121/3
f 73/123/3 138/198/3 140/200/3 72/122/3
f 74/124/3 136/195/3 138/198/3 73/123/3
f 7/13/3 120/178/3 136/195/3 74/124/3
f 120/178/3 119/177/3 135/194/3 136/195/3
f 119/177/3 118/176/3 134/193/3 135/194/3
f 118/176/3 117/175/3 133/192/3 134/193/3
f 117/175/3 116/174/3 132/191/3 133/192/3
f 116/174/3 115/173/3 131/190/3 132/191/3
f 115/173/3 114/172/3 130/189/3 131/190/3
f 114/172/3 113/171/3 129/187/3 130/189/3
f 5/11/4 128/186/4 97/148/4 1/3/4
f 128/186/4 127/185/4 98/150/4 97/148/4
f 127/185/4 126/184/4 99/152/4 98/150/4
f 126/184/4 125/183/4 100/154/4 99/152/4
f 125/183/4 124/182/4 101/156/4 100/154/4
f 124/182/4 123/181/4 102/158/4 101/156/4
f 123/181/4 122/180/4 103/160/4 102/158/4
f 122/180/4 121/179/4 104/162/4 103/160/4
f 53/103/3 184/245/3 128/186/3 5/11/3
f 184/245/3 183/244/3 127/185/3 128/186/3
f 183/244/3 182/243/3 126/184/3 127/185/3
f 182/243/3 181/242/3 125/183/3 126/184/3
f 181/242/3 180/241/3 124/182/3 125/183/3
f 180/241/3 179/240/3 123/181/3 124/182/3
f 179/240/3 178/239/3 122/180/3 123/181/3
f 178/239/3 177/237/3 121/179/3 122/180/3
f 3/8/2 112/170/2 120/178/2 7/13/2
f 112/170/2 111/169/2 119/177/2 120/178/2
f 111/169/2 110/168/2 118/176/2 119/177/2
f 110/168/2 109/167/2 117/175/2 118/176/2
f 109/167/2 108/166/2 116/174/2 117/175/2
f 108/166/2 107/165/2 115/173/2 116/174/2
f 107/165/2 106/164/2 114/172/2 115/173/2
f 106/164/2 105/163/2 113/171/2 114/172/2
f 9/16/1 240/305/1 112/170/1 3/8/1
f 240/305/1 239/304/1 111/169/1 112/170/1
f 239/304/1 238/303/1 110/168/1 111/169/1
f 238/303/1 237/302/1 109/167/1 110/168/1
f 237/302/1 236/301/1 108/166/1 109/167/1
f 236/301/1 235/300/1 107/165/1 108/166/1
f 235/300/1 234/299/1 106/164/1 107/165/1
f 234/299/1 233/297/1 105/163/1 106/164/1
f 241/307/6 243/311/6 184/246/6 136/196/6
f 241/307/4 136/196/4 129/188/4 247/318/4
f 243/311/2 245/314/2 177/238/2 184/246/2
f 245/314/5 247/318/5 129/188/5 177/238/5
f 185/248/5 233/298/5 248/320/5 246/316/5
f 246/316/5 248/320/5 247/318/5 245/314/5
f 192/256/2 185/248/2 246/316/2 244/313/2
f 244/313/2 246/316/2 245/314/2 243/311/2
f 240/306/4 242/309/4 248/320/4 233/298/4
f 242/309/4 241/307/4 247/318/4 248/320/4
f 240/306/6 192/256/6 244/313/6 242/309/6
f 242/309/6 244/313/6 243/311/6 241/307/6
g inside_window_glass
usemtl glass
f 242/310/1 244/313/1 246/317/1 248/321/1
f 247/319/3 245/315/3 243/312/3 241/308/3
